<svg width="28" height="24" viewBox="0 0 28 24" fill="none" xmlns="http://www.w3.org/2000/svg">
<path d="M27.19 15.9505V16.1605C27.18 16.2005 27.1701 16.2299 27.1601 16.2699C27.0601 16.7099 26.7 17.0399 26.25 17.0999C26.17 17.1099 26.08 17.1204 26 17.1204C24.34 17.1204 22.6901 17.1204 21.0301 17.1204C20.9001 17.1204 20.9001 17.1203 20.9001 17.2503C20.9001 18.9903 20.8901 20.7301 20.9001 22.4701C20.9001 22.9401 20.5101 23.4603 19.9001 23.4603C18.8201 23.4603 17.7401 23.4603 16.6601 23.4603C16.1001 23.4603 15.6601 23.0203 15.6601 22.4603C15.6601 20.7203 15.6601 18.9806 15.6601 17.2406C15.6601 17.1506 15.6901 17.1302 15.7701 17.1302C16.2201 17.1302 16.67 17.1302 17.12 17.1302C17.69 17.1302 18.1901 16.7107 18.2801 16.1507C18.3101 15.9407 18.2801 15.7401 18.1701 15.5501C17.3801 14.1201 16.5901 12.6803 15.8001 11.2503C15.1601 10.0903 14.52 8.92986 13.88 7.76986C13.85 7.70986 13.8701 7.67044 13.8901 7.62044C14.4401 6.59044 15.0001 5.5606 15.5501 4.5306C16.0901 3.5206 16.6301 2.52009 17.1701 1.51009C17.3901 1.10009 17.73 0.870678 18.2 0.860678C18.68 0.850678 19.0401 1.0708 19.2701 1.4808C19.9401 2.6908 20.6101 3.90044 21.2801 5.12044C22.3401 7.04044 23.4 8.96997 24.46 10.89C25.32 12.45 26.1801 13.9999 27.0301 15.5599C27.0901 15.6599 27.1101 15.78 27.1501 15.89C27.1701 15.91 27.18 15.9305 27.19 15.9505Z" fill="currentColor"/>
<path d="M9.29 15.4603C8.98 16.0203 9.18992 16.6603 9.69992 16.9603C9.88992 17.0703 10.09 17.1302 10.3 17.1302C10.74 17.1302 11.18 17.1302 11.63 17.1302H11.76V17.2601C11.76 19.0001 11.76 20.7408 11.76 22.4808C11.76 23.0208 11.32 23.4701 10.77 23.4701C10.01 23.4701 9.24996 23.4701 8.48995 23.4701C8.21995 23.4701 7.95991 23.4701 7.68991 23.4701C7.12991 23.4701 6.68991 23.0301 6.68991 22.4701C6.68991 20.7401 6.68991 19.0204 6.68991 17.2904V17.1302H6.55001C4.84001 17.1302 3.12 17.1302 1.41 17.1302C0.789999 17.1302 0.299921 16.6201 0.329921 16.0101C0.339921 15.8401 0.389935 15.6904 0.469935 15.5404C1.48994 13.7004 2.49998 11.8503 3.51998 10.0003C5.07998 7.16033 6.64993 4.33056 8.20993 1.49056C8.43993 1.07056 8.79999 0.850678 9.27999 0.860678C9.74999 0.870678 10.0999 1.09009 10.3199 1.51009C11.3799 3.55009 12.45 5.59044 13.51 7.62044C13.55 7.69044 13.54 7.7499 13.5 7.8099C12.11 10.3599 10.7 12.9103 9.29 15.4603Z" fill="currentColor"/>
</svg>
