<svg width="121" height="121" viewBox="0 0 121 121" fill="none" xmlns="http://www.w3.org/2000/svg">
<path d="M87.08 121H34.91C16.18 121 0.98999 105.81 0.98999 87.08V34.91C0.98999 16.18 16.18 0.98999 34.91 0.98999H87.08C105.81 0.98999 121 16.18 121 34.91V87.08C121 105.81 105.81 121 87.08 121Z" fill="#45B36B"/>
<path d="M87.89 44.98C87.89 47.93 87.89 50.89 87.89 53.85C87.89 55.36 86.88 56.6001 85.41 56.9001C85.16 56.9501 84.89 56.96 84.63 56.96C79.25 56.96 73.87 56.96 68.49 56.96C68.26 56.96 68.11 57.03 67.95 57.19C64.7 60.45 61.4499 63.7 58.1899 66.95C58.0299 67.11 57.96 67.26 57.96 67.49C57.97 72.9 57.97 78.3 57.96 83.71C57.96 85.22 57.04 86.4401 55.62 86.7901C55.36 86.8501 55.0899 86.8801 54.8199 86.8801C48.9199 86.8901 43.02 86.8901 37.12 86.8801C35.36 86.8801 34.01 85.5201 34.01 83.7601C34.01 77.8701 34.01 71.97 34.01 66.08C34.01 64.27 35.35 62.9301 37.17 62.9301C42.58 62.9301 47.98 62.9301 53.39 62.9301C53.62 62.9301 53.7701 62.86 53.9301 62.7C57.1901 59.44 60.45 56.1801 63.72 52.9301C63.87 52.7801 63.9399 52.6301 63.9399 52.4101C63.9299 46.9901 63.9299 41.5801 63.9399 36.1601C63.9399 34.6501 64.86 33.44 66.29 33.09C66.54 33.03 66.8001 33 67.0601 33C72.9601 33 78.86 32.99 84.76 33C86.53 33 87.88 34.3601 87.88 36.1401C87.89 39.0801 87.89 42.03 87.89 44.98Z" fill="#FCFCFC"/>
</svg>
