<svg width="61" height="61" viewBox="0 0 61 61" fill="none" xmlns="http://www.w3.org/2000/svg">
<path d="M30.5 0C13.66 0 0 13.66 0 30.5C0 47.34 13.66 61 30.5 61C47.34 61 61 47.34 61 30.5C61 13.66 47.34 0 30.5 0Z" fill="#3772FF"/>
<path d="M21.95 15.3C22.32 15.48 22.67 15.6603 23.02 15.8303C24.66 16.6203 26.4 16.9503 28.22 16.8303C29.5 16.7503 30.74 16.45 31.96 16.03C33.42 15.53 34.8601 14.9904 36.3201 14.4904C37.7001 14.0204 39.1201 13.7104 40.5901 13.7004C42.1701 13.6904 43.6801 14.0504 45.1201 14.7004C45.8601 15.0304 46.31 15.6001 46.52 16.3601C46.77 17.2501 47.01 18.15 47.25 19.05C48.45 23.51 49.6401 27.9704 50.8301 32.4304C50.8601 32.5404 50.8899 32.66 50.8899 32.78C50.8999 33.04 50.74 33.1703 50.48 33.1003C50.3 33.0503 50.13 32.9801 49.97 32.9001C48.95 32.4401 47.89 32.1202 46.78 31.9802C45.17 31.7802 43.5901 31.9601 42.0601 32.4401C40.5301 32.9201 39.02 33.48 37.51 34.01C36.3 34.43 35.0801 34.8002 33.8101 34.9602C31.9801 35.2002 30.2 34.9902 28.49 34.2702C27.98 34.0602 27.49 33.8 27 33.55C26.92 33.51 26.8301 33.4003 26.8101 33.3103C25.2001 27.3503 23.6 21.3804 22 15.4104C21.97 15.3904 21.97 15.36 21.95 15.3Z" fill="#FCFCFC"/>
<path d="M26.2201 48.8597C25.9301 48.8597 25.6402 48.8597 25.3502 48.8597C24.6502 48.8597 24.1301 48.4599 23.9501 47.7899C23.0901 44.5799 22.2302 41.37 21.3702 38.16C19.2602 30.27 17.1401 22.3801 15.0301 14.4901C14.7601 13.4701 15.2 12.54 16.18 12.14C17.19 11.72 18.4101 12.3197 18.7001 13.3797C19.5201 16.4097 20.33 19.4398 21.15 22.4798C23.41 30.8898 25.67 39.2998 27.93 47.7098C27.94 47.7598 27.9601 47.8097 27.9701 47.8597C28.1201 48.4597 27.81 48.8597 27.19 48.8597C26.85 48.8597 26.5301 48.8597 26.2201 48.8597Z" fill="#FCFCFC"/>
</svg>
