<svg width="121" height="121" viewBox="0 0 121 121" fill="none" xmlns="http://www.w3.org/2000/svg">
<path d="M87.0801 121H34.9099C16.1799 121 0.98999 105.81 0.98999 87.0802V34.9103C0.98999 16.1803 16.1799 0.990234 34.9099 0.990234H87.0801C105.81 0.990234 121 16.1803 121 34.9103V87.0802C121 105.81 105.81 121 87.0801 121Z" fill="#3772FF"/>
<path d="M47.8301 37.84C48.3801 38.11 48.8799 38.37 49.3999 38.61C51.8099 39.77 54.36 40.25 57.03 40.08C58.91 39.96 60.74 39.5301 62.51 38.9101C64.65 38.1701 66.7599 37.3801 68.8999 36.6501C70.9299 35.9601 73.0099 35.51 75.1699 35.49C77.4999 35.47 79.7001 36 81.8201 36.95C82.9101 37.44 83.5599 38.2701 83.8799 39.3801C84.2499 40.6901 84.59 42.01 84.95 43.32C86.7 49.87 88.46 56.41 90.21 62.96C90.25 63.13 90.2901 63.3 90.3 63.47C90.31 63.86 90.07 64.05 89.7 63.95C89.44 63.88 89.19 63.7701 88.95 63.6601C87.45 62.9801 85.9 62.52 84.26 62.32C81.9 62.03 79.5801 62.2901 77.3301 63.0001C75.0801 63.7101 72.8699 64.5301 70.6499 65.3001C68.8799 65.9201 67.08 66.45 65.22 66.7C62.53 67.05 59.9199 66.74 57.4099 65.69C56.6599 65.38 55.94 65.0001 55.22 64.6301C55.1 64.5701 54.9699 64.4101 54.9399 64.2801C52.5799 55.5301 50.2399 46.7701 47.8899 38.0101C47.8499 37.9801 47.8501 37.93 47.8301 37.84Z" fill="#FCFCFC"/>
<path d="M54.0901 87.0999C53.6601 87.0999 53.2401 87.0999 52.8101 87.0999C51.7801 87.0999 51.0101 86.52 50.7501 85.53C49.4901 80.82 48.23 76.11 46.96 71.39C43.86 59.81 40.75 48.23 37.65 36.65C37.25 35.15 37.9101 33.7899 39.3301 33.1999C40.8101 32.5899 42.6001 33.46 43.0201 35.02C44.2201 39.47 45.4202 43.9199 46.6102 48.3699C49.9302 60.7099 53.2401 73.06 56.5601 85.41C56.5801 85.48 56.6002 85.56 56.6202 85.63C56.8402 86.51 56.39 87.0899 55.47 87.0999C55.02 87.0999 54.5501 87.0999 54.0901 87.0999Z" fill="#FCFCFC"/>
</svg>
