<svg width="61" height="61" viewBox="0 0 61 61" fill="none" xmlns="http://www.w3.org/2000/svg">
<path d="M30.5 0C13.66 0 0 13.66 0 30.5C0 47.34 13.66 61 30.5 61C47.34 61 61 47.34 61 30.5C61 13.66 47.34 0 30.5 0Z" fill="#EF466F"/>
<path d="M30.91 29.1297C30.07 29.1397 29.2901 28.9196 28.5501 28.5496C25.2701 26.9196 21.99 25.2897 18.72 23.6497C17.51 23.0497 16.86 22.04 16.85 20.7C16.84 19.44 17.41 18.4296 18.52 17.8196C19.69 17.1796 20.9 16.6098 22.1 16.0198C24.24 14.9498 26.38 13.8996 28.52 12.8196C29.51 12.3196 30.55 12.1196 31.65 12.2796C32.23 12.3596 32.7801 12.5499 33.3101 12.8099C36.5801 14.4399 39.86 16.06 43.13 17.7C44.34 18.3 44.99 19.3097 45.01 20.6497C45.03 21.9197 44.46 22.9396 43.33 23.5496C42.07 24.2296 40.78 24.84 39.5 25.47C37.45 26.49 35.4 27.5096 33.35 28.5296C32.57 28.9196 31.77 29.1497 30.91 29.1297Z" fill="#FCFCFC"/>
<path d="M30.98 47.8796C30.09 47.8796 29.3101 47.6798 28.5601 47.3098C25.2801 45.6798 22 44.0499 18.72 42.4099C17.51 41.8099 16.89 40.7997 16.84 39.4597C16.79 38.1597 17.71 36.7999 18.93 36.3699C19 36.3399 19.1199 36.3797 19.1999 36.4197C21.1699 37.3997 23.15 38.3896 25.12 39.3796C26.02 39.8296 26.8999 40.32 27.8299 40.7C30.1099 41.65 32.3599 41.5397 34.5699 40.4397C37.2699 39.0997 39.97 37.7599 42.67 36.4099C42.8 36.3399 42.9 36.3399 43.04 36.4099C44.27 37.0099 44.96 37.9896 45 39.3596C45.04 40.6496 44.4699 41.6796 43.3299 42.2996C42.1599 42.9396 40.95 43.5099 39.75 44.0999C37.62 45.1599 35.48 46.2198 33.35 47.2898C32.58 47.6598 31.78 47.8896 30.98 47.8796Z" fill="#FCFCFC"/>
<path d="M30.7399 38.5098C30.0899 38.5098 29.3 38.3002 28.55 37.9302C25.28 36.3002 21.9999 34.6801 18.7299 33.0401C17.5099 32.4301 16.8799 31.4199 16.8399 30.0699C16.7999 28.7599 17.69 27.4603 18.92 26.9903C18.99 26.9603 19.1099 26.9899 19.1899 27.0299C21.8199 28.3399 24.4599 29.66 27.0899 30.98C27.9599 31.42 28.8599 31.7302 29.8199 31.8702C31.1299 32.0502 32.42 31.92 33.66 31.46C33.99 31.34 34.31 31.2001 34.63 31.0401C37.3 29.7101 39.98 28.3701 42.65 27.0401C42.8 26.9701 42.91 26.9599 43.05 27.0299C44.28 27.6399 44.98 28.6301 45 30.0001C45.02 31.2801 44.4499 32.3 43.3199 32.92C42.0699 33.6 40.7699 34.2099 39.4899 34.8399C37.4399 35.8599 35.3899 36.88 33.3399 37.9C32.4999 38.33 31.7599 38.5098 30.7399 38.5098Z" fill="#FCFCFC"/>
</svg>
