<svg width="121" height="121" viewBox="0 0 121 121" fill="none" xmlns="http://www.w3.org/2000/svg">
<path d="M87.0801 121H34.9099C16.1799 121 0.98999 105.81 0.98999 87.08V34.91C0.98999 16.18 16.1799 0.98999 34.9099 0.98999H87.0801C105.81 0.98999 121 16.18 121 34.91V87.08C121 105.81 105.81 121 87.0801 121Z" fill="#EF466F"/>
<path d="M61.91 58.45C60.45 58.46 59.0901 58.09 57.8001 57.45C52.0901 54.61 46.37 51.7701 40.66 48.9201C38.55 47.8701 37.42 46.11 37.4 43.77C37.38 41.57 38.3701 39.81 40.3201 38.75C42.3601 37.63 44.4801 36.65 46.5601 35.61C50.2901 33.75 54.0201 31.9101 57.7501 30.0401C59.4801 29.1701 61.28 28.83 63.2 29.09C64.22 29.23 65.1701 29.56 66.0901 30.02C71.7901 32.86 77.5 35.6901 83.2 38.5401C85.3 39.5901 86.45 41.3401 86.48 43.6801C86.51 45.8901 85.5201 47.66 83.5501 48.73C81.3601 49.91 79.1099 50.97 76.8799 52.08C73.3099 53.86 69.73 55.6301 66.15 57.4201C64.8 58.0701 63.4 58.47 61.91 58.45Z" fill="#FCFCFC"/>
<path d="M62.02 91.12C60.46 91.13 59.1 90.76 57.81 90.12C52.09 87.28 46.3698 84.4399 40.6598 81.5899C38.5598 80.5399 37.4698 78.7799 37.3798 76.4399C37.2898 74.1699 38.9 71.81 41.02 71.05C41.15 71 41.3499 71.07 41.4899 71.14C44.9299 72.85 48.37 74.58 51.81 76.3C53.38 77.08 54.92 77.9299 56.53 78.6099C60.5 80.2699 64.43 80.07 68.29 78.15C72.99 75.81 77.6998 73.48 82.4098 71.13C82.6398 71.01 82.82 71.01 83.05 71.13C85.19 72.18 86.3999 73.89 86.4699 76.26C86.5299 78.51 85.54 80.3 83.56 81.39C81.52 82.51 79.4 83.49 77.32 84.53C73.6 86.38 69.8799 88.2299 66.1699 90.0799C64.8099 90.7299 63.42 91.13 62.02 91.12Z" fill="#FCFCFC"/>
<path d="M61.6101 74.78C60.4701 74.79 59.1001 74.42 57.8001 73.77C52.1001 70.93 46.39 68.1 40.69 65.25C38.57 64.19 37.4699 62.4299 37.3899 60.0799C37.3099 57.7999 38.87 55.5299 41.01 54.7099C41.14 54.6599 41.34 54.72 41.48 54.78C46.07 57.07 50.67 59.36 55.25 61.67C56.76 62.43 58.34 62.9899 60.02 63.2099C62.31 63.5199 64.54 63.3 66.71 62.5C67.28 62.29 67.8499 62.04 68.3899 61.77C73.0499 59.45 77.7101 57.12 82.3601 54.79C82.6101 54.66 82.8101 54.65 83.0601 54.78C85.2101 55.84 86.42 57.5699 86.46 59.9599C86.5 62.1899 85.51 63.97 83.53 65.04C81.34 66.22 79.0901 67.28 76.8601 68.39C73.2801 70.17 69.7099 71.95 66.1299 73.73C64.6699 74.47 63.3901 74.78 61.6101 74.78Z" fill="#FCFCFC"/>
</svg>
