<svg width="25" height="28" viewBox="0 0 25 28" fill="currentColor">
<path d="M15.3699 15.9502L12.2599 17.75L9.1499 15.9502V12.3604L12.2599 10.5596L15.3699 12.3604L17.8499 10.9297L12.2599 7.7002L6.66992 10.9297V17.3896L12.2599 20.6201L17.8499 17.3896L15.3699 15.9502ZM15.3699 15.9502L12.2599 17.75L9.1499 15.9502V12.3604L12.2599 10.5596L15.3699 12.3604L17.8499 10.9297L12.2599 7.7002L6.66992 10.9297V17.3896L12.2599 20.6201L17.8499 17.3896L15.3699 15.9502ZM15.3699 15.9502L12.2599 17.75L9.1499 15.9502V12.3604L12.2599 10.5596L15.3699 12.3604L17.8499 10.9297L12.2599 7.7002L6.66992 10.9297V17.3896L12.2599 20.6201L17.8499 17.3896L15.3699 15.9502Z" fill="currentColor"/>
<path d="M12.26 0.570312L0.5 7.36035V20.9404L12.26 27.7305L24.02 20.9404V7.36035L12.26 0.570312ZM12.26 23.6797L4.01001 18.9199V9.40039L12.26 4.63965L20.51 9.40039V18.9199L12.26 23.6797Z" fill="currentColor"/>
<path d="M15.3699 15.9502L17.8599 17.3799L12.2599 20.6104L6.66992 17.3799V10.9297L12.2599 7.7002L17.8599 10.9297L15.3699 12.3604L12.2599 10.5596L9.1499 12.3604V15.9502L12.2599 17.75L15.3699 15.9502Z" fill="currentColor"/>
<path d="M15.3699 15.9502L17.8599 17.3799L12.2599 20.6104L6.66992 17.3799V10.9297L12.2599 7.7002L17.8599 10.9297L15.3699 12.3604L12.2599 10.5596L9.1499 12.3604V15.9502L12.2599 17.75L15.3699 15.9502Z" fill="currentColor"/>
</svg>
