<svg width="121" height="121" viewBox="0 0 121 121" fill="none" xmlns="http://www.w3.org/2000/svg">
<path d="M87.08 121H34.91C16.18 121 0.98999 105.81 0.98999 87.08V34.91C0.98999 16.18 16.18 0.98999 34.91 0.98999H87.08C105.81 0.98999 121 16.18 121 34.91V87.08C121 105.81 105.81 121 87.08 121Z" fill="#9757D7"/>
<path d="M102.76 56.82C102.31 55.94 101.57 55.64 100.61 55.64C97.53 55.66 94.47 55.64 91.39 55.64H90.88C90.66 54.52 90.49 53.44 90.25 52.37C89.04 46.96 86.3899 42.4401 81.9399 39.0601C77.6099 35.7601 72.61 34.1701 67.27 33.6501C64.19 33.3701 61.09 33.4801 58.05 34.0401C55.29 34.5301 52.6399 35.35 50.3199 36.95C49.2699 37.68 48.32 38.56 47.33 39.38C46.73 38.93 46.08 38.4101 45.37 37.9101C43.56 36.6401 41.62 35.6301 39.4 35.2801C38.41 35.1101 37.4 35.13 36.39 35.45C36.43 35.51 36.48 35.5201 36.54 35.5601C37.77 36.3401 38.52 37.52 39.04 38.85C39.79 40.74 40.03 42.7 40.05 44.69C40.07 44.97 39.98 45.16 39.77 45.34C38.72 46.31 37.7 47.3001 36.71 48.3101C35.5 49.5201 34.38 50.83 33.8 52.44C33.43 53.43 32.9401 53.77 31.9301 53.62C31.2401 53.53 30.53 53.6 29.84 53.6C29.82 53.71 29.8 53.7701 29.8 53.8101V68.0501C29.8 68.1801 29.89 68.35 29.99 68.44C32.15 70.47 34.4701 72.3201 37.0601 73.7801C38.7201 74.7301 40.4799 75.48 42.4399 75.59C42.7399 75.61 42.78 75.78 42.83 75.98C43.26 77.51 43.71 79.04 44.14 80.57C44.64 82.32 45.15 84.08 45.65 85.85C45.74 85.85 45.8 85.87 45.86 85.87H53.55C53.83 85.89 53.92 85.7401 54 85.5301C54.48 84.2001 54.99 82.9 55.47 81.59C55.58 81.25 55.7299 81.1601 56.0699 81.1601H73.22C73.41 82.6501 73.59 84.0901 73.8 85.5301H81.4399C81.4799 85.3801 81.5099 85.23 81.5699 85.08C82.3499 82.15 83.16 79.2201 83.96 76.2901C84.03 76.0501 84.22 75.82 84.39 75.64C85.3 74.69 86.35 73.8301 87.15 72.7801C89.35 69.9201 90.44 66.6001 90.72 63.0401C90.79 62.0701 90.74 61.1001 90.74 60.0501H100.43C100.63 60.0501 100.86 60.05 101.06 60.01C102.61 59.83 103.45 58.22 102.76 56.82ZM44.5 57.7C42.28 57.7 40.37 55.78 40.37 53.57C40.39 51.16 42.2 49.22 44.48 49.2C46.74 49.2 48.59 51.16 48.59 53.59C48.59 55.8 46.68 57.7 44.5 57.7ZM71.6801 42.75H61.53C60.73 42.75 60.0699 42.1001 60.0699 41.2901C60.0699 40.4801 60.72 39.83 61.53 39.83H71.6801C72.4801 39.83 73.14 40.4801 73.14 41.2901C73.14 42.1001 72.4801 42.75 71.6801 42.75Z" fill="#FCFCFC"/>
</svg>
