<svg width="61" height="61" viewBox="0 0 61 61" fill="none" xmlns="http://www.w3.org/2000/svg">
<path d="M30.5 0C13.66 0 0 13.66 0 30.5C0 47.34 13.66 61 30.5 61C47.34 61 61 47.34 61 30.5C61 13.66 47.34 0 30.5 0Z" fill="#9757D7"/>
<path d="M54.58 28.5201C54.32 28.0101 53.89 27.8399 53.33 27.8399C51.54 27.8499 49.77 27.8399 47.98 27.8399H47.6899C47.5599 27.1899 47.4599 26.5602 47.3199 25.9502C46.6199 22.8102 45.08 20.19 42.5 18.23C39.99 16.31 37.09 15.3899 33.99 15.0899C32.2 14.9299 30.41 14.9899 28.64 15.3199C27.04 15.5999 25.5 16.0798 24.16 17.0098C23.55 17.4298 23.0001 17.94 22.4301 18.42C22.0801 18.16 21.7 17.8601 21.29 17.5601C20.24 16.8201 19.11 16.2398 17.83 16.0298C17.26 15.9298 16.67 15.9399 16.09 16.1299C16.11 16.1599 16.1401 16.17 16.1801 16.19C16.8901 16.64 17.33 17.3301 17.63 18.1001C18.06 19.1901 18.2 20.3303 18.21 21.4903C18.22 21.6503 18.17 21.7602 18.05 21.8702C17.44 22.4302 16.85 23.0099 16.27 23.5899C15.57 24.2899 14.92 25.05 14.58 25.98C14.36 26.55 14.08 26.7502 13.5 26.6602C13.1 26.6102 12.69 26.65 12.29 26.65C12.28 26.72 12.27 26.7501 12.27 26.7701V35.0298C12.27 35.1098 12.32 35.1998 12.38 35.2598C13.64 36.4398 14.98 37.5099 16.48 38.3599C17.44 38.9099 18.46 39.3402 19.6 39.4102C19.77 39.4202 19.8 39.5202 19.83 39.6402C20.08 40.5302 20.34 41.4199 20.59 42.2999C20.88 43.3199 21.17 44.3399 21.47 45.3599C21.52 45.3599 21.56 45.3702 21.59 45.3702H26.05C26.21 45.3802 26.2701 45.2902 26.3101 45.1802C26.5901 44.4102 26.88 43.65 27.17 42.9C27.24 42.71 27.32 42.65 27.52 42.65H37.47C37.58 43.52 37.6901 44.3502 37.8101 45.1802H42.24C42.26 45.0902 42.2799 45.01 42.3199 44.92C42.7699 43.22 43.24 41.5199 43.71 39.8199C43.75 39.6799 43.86 39.55 43.96 39.44C44.49 38.89 45.1001 38.3898 45.5601 37.7798C46.8401 36.1198 47.47 34.1999 47.63 32.1299C47.67 31.5699 47.64 31 47.64 30.4H53.26C53.38 30.4 53.51 30.3999 53.63 30.3799C54.5 30.2599 54.98 29.3301 54.58 28.5201ZM20.8 29.0298C19.51 29.0298 18.41 27.9202 18.41 26.6402C18.42 25.2402 19.47 24.1199 20.79 24.1099C22.1 24.1099 23.17 25.25 23.17 26.65C23.17 27.92 22.06 29.0298 20.8 29.0298ZM36.5601 20.3599H30.67C30.2 20.3599 29.83 19.9801 29.83 19.5201C29.83 19.0501 30.21 18.6802 30.67 18.6802H36.5601C37.0301 18.6802 37.4 19.0601 37.4 19.5201C37.4 19.9801 37.0201 20.3599 36.5601 20.3599Z" fill="#FCFCFC"/>
</svg>
