<svg width="26" height="20" viewBox="0 0 26 20" fill="none" xmlns="http://www.w3.org/2000/svg">
<path d="M17.8002 17.6198C18.5502 17.2498 19.2301 16.9097 19.9701 16.5397C19.7401 16.3597 19.5902 16.2298 19.4302 16.1198C19.3802 16.0898 19.2801 16.1093 19.2201 16.1393C17.9801 16.7093 16.7001 17.1099 15.3601 17.3199C14.1301 17.5099 12.8902 17.5496 11.6502 17.4196C10.0402 17.2496 8.51017 16.81 7.03017 16.15C6.95017 16.11 6.81011 16.1401 6.72011 16.1901C6.58011 16.2701 6.47017 16.3797 6.28017 16.5397C7.02017 16.9097 7.70019 17.25 8.42019 17.61C8.15019 18.08 7.90012 18.5596 7.60012 18.9996C7.00012 19.8996 7.30019 19.7901 6.30019 19.4401C4.45019 18.8001 2.75018 17.8594 1.16018 16.7194C0.940176 16.5594 0.870137 16.38 0.870137 16.15C0.870137 14.95 0.800147 13.7394 0.880147 12.5494C1.08015 9.75944 1.85016 7.11928 3.14016 4.63928C3.53016 3.87928 3.98019 3.14956 4.42019 2.41956C4.50019 2.27956 4.6602 2.14971 4.8102 2.07971C6.2602 1.39971 7.79013 0.939519 9.36013 0.629519C9.54013 0.589519 9.68015 0.619949 9.76015 0.819949C9.89015 1.12995 10.0601 1.42987 10.1901 1.73987C10.2601 1.88987 10.3302 1.94956 10.5102 1.91956C11.7802 1.73956 13.0501 1.67991 14.3301 1.77991C14.8301 1.81991 15.3201 1.88956 15.8201 1.91956C15.8901 1.92956 16.0102 1.84991 16.0402 1.77991C16.2102 1.46991 16.3601 1.14995 16.5001 0.819949C16.5801 0.619949 16.7202 0.589519 16.9002 0.629519C18.3902 0.929519 19.8301 1.36936 21.2201 1.96936C21.5601 2.10936 21.7901 2.31952 21.9801 2.62952C23.4901 5.00952 24.5601 7.56948 25.0901 10.3395C25.3901 11.9295 25.5001 13.5398 25.4501 15.1598C25.4401 15.5698 25.4001 15.9698 25.3501 16.3698C25.3401 16.4598 25.2801 16.5698 25.2201 16.6198C23.4201 17.9598 21.4601 18.9798 19.3201 19.6598C19.2501 19.6798 19.1101 19.6698 19.0801 19.6198C18.6401 18.9598 18.2302 18.2998 17.8002 17.6198ZM11.2602 11.11C11.2702 10.54 11.1202 10.0194 10.8102 9.54944C9.9402 8.23944 8.22017 8.19007 7.28017 9.44007C6.51017 10.4701 6.58009 12.0096 7.45009 12.9596C8.31009 13.8996 9.68019 13.9201 10.5502 12.9801C11.0402 12.4601 11.2502 11.83 11.2602 11.11ZM19.5001 10.9293C19.4501 10.7293 19.4102 10.3396 19.2602 9.99964C18.9102 9.15964 18.2901 8.61944 17.3501 8.54944C16.5501 8.48944 15.9301 8.85964 15.4701 9.49964C14.7701 10.4796 14.8201 11.93 15.5801 12.86C16.4901 13.98 18.0402 13.9492 18.9202 12.8092C19.3102 12.2992 19.4601 11.7293 19.5001 10.9293Z" fill="currentColor"/>
</svg>
