<svg width="25" height="24" viewBox="0 0 25 24" fill="none" xmlns="http://www.w3.org/2000/svg">
<path d="M10.5301 19.7993C10.5301 21.1293 10.5301 22.4596 10.5301 23.7896C10.5301 23.9096 10.4901 23.9197 10.3901 23.9097C8.27011 23.5397 6.38009 22.6698 4.74009 21.2798C2.61009 19.4698 1.2801 17.1792 0.750097 14.4292C0.520097 13.2092 0.480112 11.9893 0.640112 10.7593C0.970112 8.1893 2.02015 5.96938 3.80015 4.08938C5.51015 2.27938 7.60014 1.12942 10.0401 0.629417C11.1901 0.389417 12.3501 0.32973 13.5201 0.44973C16.1701 0.71973 18.49 1.74985 20.45 3.56985C22.29 5.27985 23.4601 7.36985 23.9801 9.81985C24.2501 11.1098 24.3001 12.4093 24.1301 13.7193C23.8001 16.2793 22.7501 18.5094 20.9701 20.3794C19.2201 22.2194 17.0901 23.3799 14.5901 23.8599C14.4801 23.8799 14.3401 23.9599 14.2701 23.8999C14.1901 23.8399 14.2401 23.6896 14.2401 23.5796C14.2401 20.9896 14.2401 18.3991 14.2401 15.8091C14.2401 15.6791 14.2701 15.6597 14.4001 15.6597C15.2201 15.6697 16.0501 15.6597 16.8701 15.6597C16.9601 15.6597 17.0101 15.6496 17.0201 15.5396C17.1701 14.5596 17.3201 13.5694 17.4701 12.5894C17.4801 12.5294 17.4801 12.4599 17.5001 12.3999C17.5501 12.2599 17.5001 12.23 17.3601 12.23C16.3701 12.24 15.3801 12.2298 14.3901 12.2398C14.2701 12.2398 14.2401 12.1994 14.2401 12.0894C14.2501 11.3794 14.2301 10.6695 14.2501 9.9595C14.2601 9.3995 14.4201 8.88981 14.9001 8.52981C15.2601 8.25981 15.6701 8.17922 16.1001 8.17922C16.5901 8.16922 17.08 8.17922 17.57 8.17922C17.65 8.17922 17.6701 8.15938 17.6701 8.08938C17.6701 7.17938 17.6701 6.26989 17.6701 5.35989C17.6701 5.26989 17.6302 5.24977 17.5602 5.23977C16.5602 5.09977 15.5501 4.97934 14.5301 5.04934C13.3601 5.12934 12.3301 5.52973 11.5501 6.44973C11.0301 7.05973 10.7601 7.77911 10.6201 8.5591C10.5501 8.9591 10.5301 9.36981 10.5301 9.77981C10.5301 10.5498 10.5301 11.3194 10.5401 12.0894C10.5401 12.2394 10.5001 12.2593 10.3701 12.2593C9.47009 12.2593 8.58015 12.2595 7.68015 12.2495C7.56015 12.2495 7.53013 12.2699 7.53013 12.3999C7.54013 13.4499 7.53013 14.4993 7.53013 15.5493C7.53013 15.6593 7.57014 15.6792 7.67014 15.6792C8.58014 15.6792 9.49012 15.6792 10.4001 15.6792C10.5101 15.6792 10.5401 15.6998 10.5401 15.8198C10.5301 17.1298 10.5301 18.4593 10.5301 19.7993Z" fill="currentColor"/>
</svg>
