<svg width="26" height="25" viewBox="0 0 26 25" fill="currentColor">
<path d="M25.0801 11.7402C25.0801 10.6802 25.0801 9.62031 25.0701 8.57031C25.0601 7.91031 25.0301 7.24008 24.9801 6.58008C24.9101 5.65008 24.7102 4.73965 24.3102 3.88965C23.6002 2.36965 22.4601 1.30996 20.8901 0.709961C20.2701 0.469961 19.6201 0.320234 18.9501 0.240234C18.3701 0.170234 17.7801 0.149883 17.2001 0.129883C16.5501 0.109883 15.9101 0.109609 15.2601 0.0996094C14.9801 0.0996094 14.7002 0.0998437 14.4202 0.0898438C14.3802 0.0898438 14.3402 0.0800781 14.2902 0.0800781H11.7601C11.7101 0.0800781 11.6501 0.0898438 11.6001 0.0898438C10.8601 0.0998437 10.1301 0.0903516 9.39014 0.110352C8.75014 0.120352 8.12011 0.150195 7.49011 0.200195C6.43011 0.280195 5.41009 0.509766 4.47009 1.00977C3.08009 1.74977 2.11017 2.86008 1.55017 4.33008C1.33017 4.92008 1.19011 5.53992 1.11011 6.16992C1.04011 6.67992 1.02012 7.19973 1.00012 7.71973C0.980122 8.45973 0.960073 9.20043 0.950073 9.94043C0.950073 10.0004 0.940176 10.0699 0.930176 10.1299V14.29C0.940176 14.33 0.950073 14.3604 0.950073 14.4004C0.970073 15.1504 0.980122 15.9004 1.00012 16.6504C1.02012 17.2104 1.05013 17.7701 1.13013 18.3301C1.28013 19.3301 1.57013 20.2904 2.13013 21.1504C2.93013 22.4004 4.04007 23.2497 5.45007 23.7197C6.02007 23.9097 6.61008 24.0398 7.21008 24.0898C7.68008 24.1298 8.15012 24.1597 8.62012 24.1797C9.94012 24.2397 11.2601 24.2305 12.5801 24.2305C13.3301 24.2305 14.0701 24.2405 14.8201 24.2305C15.7401 24.2205 16.6601 24.1999 17.5801 24.1699C18.0701 24.1599 18.5602 24.1296 19.0502 24.0596C20.1102 23.9196 21.1201 23.62 22.0201 23.04C23.2201 22.26 24.0602 21.1998 24.5302 19.8398C24.7302 19.2798 24.8502 18.7004 24.9302 18.1104C25.0002 17.5204 25.0302 16.9296 25.0402 16.3496C25.0602 15.0996 25.0601 13.8398 25.0701 12.5898C25.0701 12.5498 25.0801 12.5 25.0901 12.46V11.9805C25.0901 11.8905 25.0801 11.8202 25.0801 11.7402ZM22.9001 14.9902C22.8901 15.7202 22.8601 16.4497 22.8301 17.1797C22.8001 17.7797 22.7202 18.3704 22.5402 18.9404C22.2502 19.8904 21.6901 20.6404 20.8601 21.1904C20.4201 21.4804 19.9202 21.6603 19.4102 21.7803C18.9402 21.8903 18.4701 21.9397 17.9901 21.9697C16.8601 22.0297 15.7201 22.04 14.5901 22.04C14.0601 22.04 13.5401 22.04 13.0101 22.04V22.0498C11.8901 22.0398 10.7601 22.0503 9.64014 22.0303C8.97014 22.0203 8.30013 21.9904 7.63013 21.9404C7.02013 21.9004 6.43011 21.7798 5.86011 21.5498C4.76011 21.1098 4.00008 20.3305 3.58008 19.2305C3.39008 18.7405 3.2901 18.2202 3.2301 17.7002C3.1601 17.0002 3.14013 16.2898 3.13013 15.5898C3.12013 15.0098 3.11011 14.4298 3.11011 13.8398C3.11011 12.5098 3.11011 11.1904 3.11011 9.86035C3.11011 8.94035 3.13006 8.00984 3.19006 7.08984C3.23006 6.42984 3.33017 5.78039 3.55017 5.15039C3.89017 4.20039 4.50012 3.48047 5.37012 2.98047C5.83012 2.72047 6.3301 2.55973 6.8501 2.46973C7.2901 2.38973 7.73017 2.35008 8.17017 2.33008C9.76017 2.25008 11.3601 2.25977 12.9501 2.25977C13.8501 2.25977 14.7501 2.24953 15.6501 2.26953C16.4201 2.27953 17.2001 2.30984 17.9701 2.33984C18.5601 2.36984 19.1401 2.45035 19.7001 2.61035C20.6401 2.88035 21.4001 3.40996 21.9601 4.20996C22.2701 4.65996 22.4701 5.16043 22.6001 5.69043C22.7201 6.18043 22.7802 6.68043 22.8102 7.19043C22.8802 8.53043 22.8801 9.8602 22.8801 11.2002C22.9101 12.4602 22.9101 13.7302 22.9001 14.9902Z" fill="currentColor"/>
<path d="M13.06 5.96007C9.69004 5.94007 6.83993 8.65023 6.81993 12.1202C6.79993 15.5602 9.57001 18.3505 13.02 18.3605C16.44 18.3605 19.22 15.58 19.22 12.17C19.22 8.70003 16.41 5.98007 13.06 5.96007ZM17.04 12.2101C17.01 14.4701 15.1499 16.2198 12.9499 16.1798C10.7899 16.1398 8.98999 14.3798 8.99999 12.1398C9.00999 9.94976 10.77 8.13999 13.02 8.12999C15.29 8.14999 17.07 9.99007 17.04 12.2101Z" fill="currentColor"/>
<path d="M20.9103 5.70996C20.9103 6.50996 20.2702 7.16016 19.4702 7.16016C18.6602 7.16016 18.0103 6.51996 18.0103 5.70996C18.0103 4.90996 18.6602 4.25977 19.4502 4.25977C20.2602 4.25977 20.9103 4.90996 20.9103 5.70996Z" fill="currentColor"/>
</svg>
