<svg width="77" height="54" viewBox="0 0 77 54" fill="none">
<path d="M76.47 3.29001C76.46 0.83001 73.8 -0.68999 71.67 0.54001L63.9301 5.01001V5.10001L63.85 5.06001L51.34 12.29V12.38L51.26 12.34L38.75 19.57V19.66L38.67 19.62L26.16 12.39L26.09 12.35L13.5699 5.12001L13.49 5.08001L5.77002 0.63001C3.64002 -0.59999 0.969971 0.940011 0.969971 3.40001V50.38C0.969971 52.84 3.64002 54.38 5.77002 53.15L13.49 48.69L13.5699 48.65L26.08 41.42L26.16 41.38L38.67 34.15L38.75 34.11V34.2L51.26 41.43L51.34 41.39V41.48L63.85 48.71L63.9301 48.67V48.76L71.66 53.22C73.79 54.45 76.45 52.92 76.46 50.45L76.53 12.41L76.47 3.29001ZM26.08 26.86L13.5699 34.09V34.18L13.49 34.14L13.5699 34.1V19.64L13.5 19.6L13.5699 19.56V19.65L26.08 26.86L26.16 26.82V26.91L26.08 26.86ZM63.9301 34.17L63.86 34.13L51.34 26.9L51.26 26.86L51.34 26.82L63.85 19.59L63.9301 19.55V34.17Z" fill="#00D465"/>
</svg>
