<svg width="121" height="121" viewBox="0 0 121 121" fill="none" xmlns="http://www.w3.org/2000/svg">
<path d="M87.02 121H34.85C16.12 121 0.930054 105.81 0.930054 87.0801V34.9102C0.930054 16.1802 16.12 0.990234 34.85 0.990234H87.02C105.75 0.990234 120.94 16.1802 120.94 34.9102V87.0801C120.93 105.81 105.75 121 87.02 121Z" fill="#9757D7"/>
<path d="M61.94 88.0098C56.66 88.0098 51.37 87.9998 46.09 88.0098C42.2 88.0098 39.1 86.4598 36.85 83.2998C35.55 81.4698 34.94 79.3899 34.94 77.1499C34.94 66.3899 34.91 55.6301 34.95 44.8701C34.97 40.6301 36.95 37.4501 40.6 35.3301C42.2 34.4001 43.98 34.0098 45.84 34.0098C56.58 34.0098 67.3101 34.0098 78.0501 34.0098C81.0401 34.0098 83.63 35.0602 85.74 37.1602C87.86 39.2702 88.94 41.8601 88.94 44.8701C88.95 55.6301 88.95 66.3899 88.94 77.1499C88.94 80.1399 87.8701 82.7301 85.7601 84.8301C83.6201 86.9601 81 88.0098 77.97 88.0098C72.63 88.0098 67.28 88.0098 61.94 88.0098ZM59.62 63.3198C59.62 63.9098 59.62 64.4402 59.62 64.9702C59.62 67.4202 59.62 69.8698 59.62 72.3198C59.62 73.2598 60 74.0102 60.83 74.4702C61.6 74.8902 62.3901 74.8702 63.1301 74.4102C63.9201 73.9202 64.25 73.18 64.24 72.27C64.23 69.44 64.24 66.6 64.24 63.77C64.24 63.63 64.24 63.4901 64.24 63.3301C64.6 63.3301 64.92 63.3301 65.23 63.3301C67.9 63.3301 70.56 63.3401 73.23 63.3301C75.16 63.3201 76.3 61.4198 75.33 59.8198C74.85 59.0298 74.1 58.7002 73.19 58.7002C70.36 58.7002 67.52 58.7002 64.69 58.7002C64.55 58.7002 64.41 58.7002 64.24 58.7002C64.24 58.5102 64.24 58.37 64.24 58.23C64.24 55.4 64.25 52.56 64.24 49.73C64.24 48.1 62.97 47.0301 61.44 47.3301C60.33 47.5501 59.62 48.4902 59.62 49.7402C59.62 52.5702 59.62 55.4102 59.62 58.2402C59.62 58.3802 59.62 58.5202 59.62 58.7002C59.24 58.7002 58.8901 58.7002 58.5501 58.7002C55.9101 58.7002 53.2701 58.6902 50.6301 58.7002C48.9101 58.7102 47.82 60.18 48.33 61.77C48.64 62.73 49.5201 63.3201 50.6601 63.3301C53.4901 63.3301 56.3301 63.3301 59.1601 63.3301C59.3001 63.3201 59.44 63.3198 59.62 63.3198Z" fill="#FCFCFC"/>
</svg>
