<svg width="61" height="61" viewBox="0 0 61 61" fill="none" xmlns="http://www.w3.org/2000/svg">
<path d="M30.5 0C13.66 0 0 13.66 0 30.5C0 47.34 13.66 61 30.5 61C47.34 61 61 47.34 61 30.5C61 13.66 47.34 0 30.5 0Z" fill="#45B36B"/>
<path d="M34.8199 33.4902C34.7199 33.5502 34.6499 33.6302 34.5699 33.6602C34.3199 33.7502 34.2799 33.9402 34.2499 34.1802C34.0699 35.8602 33.8799 37.55 33.6999 39.23C33.5399 40.71 33.3799 42.2002 33.2199 43.6802C33.1299 44.5402 33.04 45.4 32.92 46.25C32.83 46.91 32.1599 47.4898 31.4999 47.5098C30.6699 47.5298 29.84 47.5298 29.01 47.5098C28.34 47.4898 27.6999 46.9498 27.5799 46.2798C27.4799 45.7298 27.4299 45.1699 27.3699 44.6099C27.2399 43.4099 27.1099 42.22 26.9799 41.02C26.8499 39.83 26.7299 38.6502 26.5999 37.4702C26.4699 36.2902 26.3499 35.1102 26.2199 33.9302C26.2099 33.8702 26.1599 33.79 26.1099 33.75C25.9999 33.66 25.8699 33.5898 25.8199 33.5898C25.5999 33.7698 25.38 33.9499 25.16 34.1299C25.13 34.1599 25.09 34.2 25.05 34.21C24.79 34.31 24.7599 34.5198 24.7299 34.7598C24.5899 36.1498 24.43 37.5402 24.28 38.9302C24.15 40.1002 24.03 41.2802 23.9 42.4502C23.8 43.3602 23.6999 44.2799 23.5999 45.1899C23.5099 45.9299 22.9099 46.52 22.1299 46.52C21.4499 46.53 20.7699 46.5298 20.0899 46.5098C19.3699 46.4898 18.7699 45.9299 18.6899 45.1299C18.5099 43.4399 18.3199 41.7498 18.1299 40.0698C17.9499 38.3998 17.7599 36.7301 17.5799 35.0601C17.5599 34.8901 17.55 34.7098 17.52 34.5498C17.51 34.4798 17.46 34.3999 17.4 34.3599C16.6 33.8799 16.17 33.17 16.05 32.25C15.86 30.81 15.6499 29.3702 15.4599 27.9302C15.3899 27.4102 15.2899 26.8901 15.3399 26.3501C15.4599 25.0401 16.5599 23.8502 17.8699 23.7002C18.3699 23.6402 18.88 23.6602 19.39 23.6602C19.59 23.6602 19.7399 23.7802 19.8599 23.9302C20.2299 24.4102 20.6099 24.8799 20.9899 25.3599C21.0399 25.4199 21.09 25.4798 21.14 25.5498C21.46 25.1498 21.7699 24.7699 22.0799 24.3799C22.2099 24.2199 22.3299 24.0702 22.4599 23.9102C22.6099 23.7202 22.8 23.6401 23.04 23.6401C23.29 23.6401 23.54 23.6401 23.81 23.6401C23.84 23.5101 23.86 23.38 23.89 23.25C24.28 21.65 25.5799 20.6199 27.2299 20.6099C27.5099 20.6099 27.7899 20.6099 28.0699 20.6099C28.3599 20.6099 28.58 20.7099 28.76 20.9399C29.22 21.5299 29.69 22.1099 30.16 22.6899C30.19 22.7299 30.22 22.7698 30.27 22.8198C30.5 22.5398 30.7199 22.26 30.9399 21.98C31.2199 21.63 31.5 21.2799 31.78 20.9199C31.93 20.7399 32.0999 20.6101 32.3499 20.6201C32.8799 20.6301 33.4199 20.6099 33.9499 20.6699C35.2099 20.8099 36.33 21.8298 36.65 23.0698C36.7 23.2498 36.73 23.4399 36.78 23.6499C37 23.6499 37.2299 23.6599 37.4499 23.6499C37.7699 23.6299 38.0099 23.7498 38.2099 24.0098C38.6099 24.5298 39.0299 25.0398 39.4399 25.5498C39.8599 25.0198 40.2899 24.5002 40.6999 23.9702C40.8699 23.7502 41.0899 23.6301 41.3699 23.6401C41.8599 23.6601 42.3699 23.63 42.8499 23.71C44.2899 23.95 45.3499 25.3098 45.2399 26.7598C45.1799 27.5098 45.0599 28.2598 44.9599 29.0098C44.8099 30.1198 44.6599 31.2401 44.4999 32.3501C44.3799 33.2201 43.93 33.8701 43.18 34.3101C43.09 34.3601 43.05 34.42 43.04 34.52C42.93 35.59 42.8099 36.6602 42.6899 37.7202C42.5499 39.0002 42.41 40.2801 42.27 41.5601C42.14 42.7301 42.01 43.8901 41.89 45.0601C41.82 45.7801 41.3999 46.2902 40.7099 46.4702C40.6199 46.4902 40.5299 46.5 40.4499 46.5C39.7699 46.5 39.08 46.51 38.4 46.5C37.71 46.49 37.0599 45.9402 36.9699 45.1602C36.8899 44.4802 36.8199 43.8001 36.7399 43.1201C36.6099 41.9401 36.4799 40.7498 36.3599 39.5698C36.2299 38.3798 36.0999 37.19 35.9699 36C35.9099 35.49 35.86 34.97 35.8 34.46C35.8 34.42 35.7799 34.3701 35.7499 34.3501C35.3699 34.1401 35.0799 33.8502 34.8199 33.4902Z" fill="#FCFCFC"/>
<path d="M26.42 15.8298C26.46 13.5298 28.32 11.9598 30.35 11.9998C32.51 12.0398 34.19 13.8297 34.15 15.9197C34.11 18.0597 32.35 19.75 30.24 19.72C28.04 19.68 26.42 17.9098 26.42 15.8298Z" fill="#FCFCFC"/>
<path d="M35.98 19.5C35.98 17.59 37.55 16.02 39.45 16.02C41.36 16.02 42.9201 17.5898 42.9301 19.5098C42.9301 21.4098 41.37 22.97 39.47 22.98C37.54 22.98 35.98 21.43 35.98 19.5Z" fill="#FCFCFC"/>
<path d="M17.65 19.5C17.65 17.58 19.2 16.0301 21.12 16.0201C23.03 16.0101 24.61 17.5998 24.6 19.5098C24.59 21.4198 23.04 22.9703 21.12 22.9703C19.2 22.9703 17.65 21.42 17.65 19.5Z" fill="#FCFCFC"/>
</svg>
