<svg width="121" height="121" viewBox="0 0 121 121" fill="none" xmlns="http://www.w3.org/2000/svg">
<path d="M86.4099 121H34.24C15.51 121 0.320068 105.81 0.320068 87.0801V34.9102C0.320068 16.1802 15.51 0.990234 34.24 0.990234H86.4099C105.14 0.990234 120.33 16.1802 120.33 34.9102V87.0801C120.33 105.81 105.14 121 86.4099 121Z" fill="#EF466F"/>
<path d="M44.1398 85.9999C44.1398 85.9999 42.74 85.9999 42.07 85.9999C40.18 85.9999 38.2898 86.0099 36.4098 85.9999C32.3698 85.9799 28.9899 83.2097 28.2099 79.2597C28.0999 78.6997 28.05 78.1197 28.05 77.5497C28.04 66.2297 28.04 54.92 28.05 43.6C28.05 39.05 31.6799 35.3697 36.2299 35.2597C36.3399 35.2597 36.45 35.2597 36.56 35.2597C53.01 35.2597 69.4598 35.25 85.9098 35.27C89.5698 35.28 92.1799 37.03 93.7299 40.33C94.2299 41.4 94.4098 42.5602 94.4098 43.7402C94.4098 55.0302 94.4198 66.33 94.4098 77.62C94.4098 81.87 91.24 85.4099 87.03 85.9199C86.71 85.9599 86.39 85.9701 86.07 85.9701C77.67 85.9701 69.2701 85.9701 60.87 85.9701C60.57 85.9601 44.1398 85.9999 44.1398 85.9999ZM61.2099 77.4799C64.0899 77.4799 66.97 77.4799 69.85 77.4799C69.97 77.4799 70.0899 77.4801 70.2099 77.4701C70.8899 77.4101 71.32 76.99 71.33 76.31C71.35 74.83 71.35 73.35 71.33 71.87C71.32 71.13 70.84 70.6899 70.11 70.6899C64.18 70.6899 58.26 70.6899 52.33 70.6899C51.57 70.6899 51.1 71.1398 51.1 71.8998C51.09 73.3498 51.09 74.7902 51.1 76.2402C51.1 77.0102 51.54 77.4499 52.3 77.4799C52.4 77.4799 52.5 77.4799 52.6 77.4799C55.47 77.4799 58.3399 77.4799 61.2099 77.4799ZM64.53 47.0497C64.53 47.7797 64.53 48.5102 64.53 49.2402C64.54 49.9602 64.9498 50.4299 65.6598 50.4399C67.1898 50.4699 68.7299 50.4599 70.2599 50.4399C70.9399 50.4299 71.3798 49.9797 71.3798 49.2997C71.3998 47.8097 71.3998 46.32 71.3798 44.83C71.3698 44.11 70.8899 43.6699 70.1699 43.6699C68.6899 43.6699 67.2099 43.6699 65.7299 43.6699C64.9999 43.6699 64.5299 44.1401 64.52 44.8701C64.5299 45.5901 64.53 46.3197 64.53 47.0497ZM47.6699 63.8998C48.3899 63.8998 49.11 63.8998 49.82 63.8998C49.84 63.8998 49.8598 63.8998 49.8898 63.8998C50.6598 63.8798 51.1298 63.4201 51.1298 62.6601C51.1398 61.2201 51.1398 59.79 51.1298 58.35C51.1298 57.57 50.6598 57.1201 49.8898 57.1201C48.4298 57.1201 46.9799 57.1201 45.52 57.1201C44.7299 57.1201 44.27 57.5698 44.27 58.3798C44.27 59.7998 44.26 61.2298 44.27 62.6498C44.27 63.4598 44.71 63.9001 45.52 63.9101C46.24 63.9001 46.9599 63.8998 47.6699 63.8998ZM41.04 70.6899C40.29 70.6899 39.54 70.6899 38.79 70.6899C38.09 70.6999 37.63 71.16 37.62 71.85C37.61 73.33 37.61 74.81 37.62 76.29C37.62 76.99 38.0299 77.4501 38.7399 77.4701C40.2799 77.4901 41.83 77.4901 43.37 77.4701C44.06 77.4601 44.4899 76.99 44.4899 76.29C44.4899 74.8 44.4799 73.3098 44.4599 71.8198C44.4499 71.1398 43.97 70.7001 43.29 70.7001C42.54 70.6901 41.79 70.6899 41.04 70.6899ZM51.1298 47.0297C51.1198 47.0297 51.11 47.0297 51.1 47.0297C51.1 47.7597 51.09 48.4899 51.1 49.2099C51.11 49.9799 51.54 50.4201 52.31 50.4501C52.46 50.4601 52.62 50.4501 52.77 50.4501C54.07 50.4501 55.3699 50.4601 56.6699 50.4501C57.5199 50.4501 57.9599 50.0001 57.9599 49.1601C57.9599 47.7501 57.9599 46.3399 57.9599 44.9199C57.9599 44.1199 57.4999 43.6601 56.7099 43.6601C55.2499 43.6601 53.8 43.6601 52.34 43.6601C51.58 43.6601 51.13 44.1 51.12 44.8701C51.12 45.5901 51.1298 46.3097 51.1298 47.0297ZM74.6398 57.1098C73.9198 57.1098 73.2099 57.1098 72.4899 57.1098C71.6599 57.1098 71.2199 57.5501 71.2199 58.3701C71.2199 59.7701 71.2199 61.17 71.2199 62.58C71.2199 63.47 71.64 63.8998 72.54 63.8998C73.41 63.8998 74.2798 63.8998 75.1598 63.8998C75.7298 63.8998 76.3098 63.9098 76.8798 63.8998C77.5798 63.8798 78.05 63.4698 78.06 62.8198C78.08 61.2898 78.08 59.7501 78.06 58.2201C78.05 57.5501 77.5698 57.1301 76.8998 57.1201C76.1398 57.1101 75.3898 57.1098 74.6398 57.1098ZM81.4199 43.6699C80.6499 43.6699 79.87 43.6599 79.1 43.6699C78.44 43.6799 77.9699 44.13 77.9599 44.79C77.9499 46.29 77.9499 47.79 77.9599 49.29C77.9599 49.96 78.37 50.4201 79.04 50.4301C80.6 50.4601 82.1499 50.4601 83.7099 50.4301C84.3899 50.4201 84.8 49.95 84.8 49.27C84.81 47.8 84.81 46.3301 84.8 44.8701C84.8 44.1301 84.34 43.6699 83.6 43.6699C82.88 43.6599 82.1499 43.6699 81.4199 43.6699ZM81.3798 70.6899C80.6598 70.6899 79.9499 70.6899 79.2299 70.6899C78.3999 70.6899 77.9599 71.1201 77.9599 71.9501C77.9599 73.3501 77.9599 74.7501 77.9599 76.1601C77.9599 77.0601 78.38 77.4799 79.27 77.4799C80.1199 77.4799 80.97 77.4799 81.82 77.4799C82.42 77.4799 83.01 77.4899 83.61 77.4799C84.37 77.4599 84.8 77.01 84.8 76.27C84.8 74.7999 84.81 73.33 84.8 71.87C84.8 71.17 84.3298 70.7099 83.6298 70.7099C82.8898 70.6899 82.1398 70.6899 81.3798 70.6899ZM41.08 43.6699C40.32 43.6699 39.56 43.6599 38.8 43.6699C38.13 43.6799 37.6498 44.1398 37.6498 44.8198C37.6398 46.3198 37.6298 47.8198 37.6398 49.3198C37.6398 49.9498 38.0399 50.3699 38.6699 50.4399C38.7199 50.4499 38.78 50.4501 38.83 50.4501C40.31 50.4501 41.7899 50.4601 43.2599 50.4501C44.0099 50.4401 44.4599 50.01 44.4699 49.29C44.4799 47.8 44.4799 46.3098 44.4699 44.8198C44.4599 44.1198 44 43.6701 43.3 43.6601C42.55 43.6601 41.82 43.6699 41.08 43.6699ZM61.1899 57.1098C60.4799 57.1098 59.78 57.1098 59.07 57.1098C58.22 57.1098 57.78 57.5501 57.78 58.3901C57.78 59.7901 57.78 61.19 57.78 62.6C57.78 63.45 58.21 63.8898 59.06 63.8998C59.67 63.9098 60.2698 63.8998 60.8798 63.8998C61.7198 63.8998 62.5598 63.9098 63.3998 63.8998C64.1398 63.8898 64.61 63.4697 64.61 62.7797C64.63 61.2697 64.63 59.7502 64.61 58.2402C64.6 57.5502 64.1199 57.1201 63.4399 57.1201C62.6899 57.1101 61.9399 57.1098 61.1899 57.1098Z" fill="#FCFCFC"/>
</svg>
