<svg width="26" height="22" viewBox="0 0 26 22" fill="none" xmlns="http://www.w3.org/2000/svg">
<path d="M25.7198 2.04976C25.6998 2.49976 25.6498 2.94007 25.5898 3.37007C25.4798 4.27007 25.3598 5.16952 25.2298 6.05952C25.0798 7.09952 24.9198 8.13964 24.7598 9.17964C24.5798 10.2996 24.3998 11.4298 24.2098 12.5498C23.9898 13.8298 23.7699 15.1203 23.5499 16.4003C23.3899 17.3203 23.2099 18.2303 23.0499 19.1503C22.9599 19.6803 22.8398 20.2004 22.6198 20.6904C22.5598 20.8204 22.4899 20.9503 22.4099 21.0703C22.0499 21.6403 21.5398 21.8597 20.8798 21.7597C20.3798 21.6897 19.9198 21.5002 19.4898 21.2402C18.9898 20.9402 18.5299 20.5797 18.0499 20.2597C16.3699 19.1297 14.6898 18.0003 12.9998 16.8603C12.6698 16.6403 12.3298 16.4096 11.9998 16.1796C11.7998 16.0396 11.6298 15.8804 11.4798 15.6904C11.0598 15.1704 11.0798 14.7604 11.3898 14.2304C11.5498 13.9604 11.7698 13.7502 11.9898 13.5302C12.3298 13.2002 12.6698 12.8595 13.0098 12.5195C13.2798 12.2495 13.5598 11.9804 13.8498 11.7304C14.0298 11.5704 14.1898 11.4002 14.3698 11.2402C15.1498 10.5802 15.8698 9.86987 16.6098 9.16987C17.4398 8.37987 18.2799 7.58995 19.0599 6.74995C19.1499 6.64995 19.2398 6.53964 19.3298 6.42964C19.4498 6.27964 19.4298 6.11968 19.3498 5.96968C19.2698 5.81968 19.1298 5.78952 18.9798 5.80952C18.8698 5.81952 18.7599 5.85987 18.6599 5.91987C18.2499 6.15987 17.8498 6.41964 17.4398 6.67964C15.4198 7.98964 13.4299 9.32964 11.4299 10.6796C10.5599 11.2596 9.68978 11.8604 8.81978 12.4404C8.39978 12.7204 7.95982 12.9703 7.48982 13.1503C6.87982 13.3803 6.26983 13.4195 5.62983 13.3095C4.56983 13.1195 3.54986 12.8202 2.52986 12.4902C1.97986 12.3102 1.41984 12.1596 0.889844 11.9296C0.709844 11.8496 0.539834 11.7703 0.379834 11.6503C0.109834 11.4503 -0.000112474 11.1903 0.0598875 10.8603C0.0798875 10.7603 0.12978 10.6796 0.19978 10.5996C0.37978 10.3896 0.599795 10.2298 0.839795 10.0898C1.16979 9.88979 1.53984 9.75956 1.88984 9.59956C2.19984 9.45956 2.50978 9.33991 2.81978 9.20991C3.12978 9.07991 3.43983 8.93976 3.74983 8.79976C4.07983 8.65975 4.40982 8.51983 4.73982 8.37983C5.15982 8.19983 5.58984 8.01003 6.00984 7.83003C6.31984 7.70003 6.62977 7.55964 6.93977 7.42964C7.26977 7.28964 7.58987 7.14972 7.91987 7.00972C8.31987 6.83972 8.70982 6.66018 9.10981 6.49018C9.38981 6.37018 9.66978 6.2596 9.94978 6.1396C10.3098 5.9796 10.6598 5.81987 11.0198 5.66987C11.3498 5.52987 11.6899 5.38995 12.0299 5.24995C12.3199 5.12995 12.5998 5.00983 12.8798 4.87983C13.3398 4.66983 13.8098 4.48999 14.2698 4.28999C16.6098 3.26999 18.9798 2.30983 21.3598 1.37983C22.0998 1.08983 22.8398 0.820068 23.6098 0.620068C23.9298 0.540068 24.2498 0.489482 24.5798 0.519482C24.6098 0.519482 24.6399 0.530224 24.6699 0.530224C25.2599 0.610224 25.5699 0.919716 25.6499 1.50972C25.6999 1.69972 25.6998 1.87976 25.7198 2.04976Z" fill="currentColor"/>
</svg>
