<svg width="27" height="22" viewBox="0 0 27 22" fill="none" xmlns="http://www.w3.org/2000/svg">
<path d="M0.75 19.2099C3.61 19.4899 6.16994 18.7702 8.43994 17.0302C7.32994 16.9802 6.31994 16.6404 5.43994 15.9804C4.54994 15.3204 3.92996 14.4501 3.57996 13.4101C3.96996 13.4301 4.36 13.4499 4.75 13.4599C5.14 13.4599 5.52002 13.3902 5.90002 13.2802C4.69002 13.0002 3.68001 12.3898 2.89001 11.4198C2.11001 10.4498 1.72998 9.34023 1.72998 8.07023C2.46998 8.47023 3.24006 8.68988 4.06006 8.70988C2.95006 7.90988 2.21002 6.85945 1.90002 5.51945C1.60002 4.18945 1.79997 2.91965 2.46997 1.71965C5.30997 5.06965 8.91005 6.89988 13.3 7.20988C13.27 7.01988 13.24 6.86965 13.22 6.71965C13.03 5.13965 13.44 3.73019 14.49 2.53019C15.32 1.58019 16.37 1.00023 17.61 0.820232C19.34 0.570232 20.85 1.06019 22.11 2.28019C22.22 2.39019 22.31 2.40004 22.45 2.37004C23.53 2.13004 24.54 1.73961 25.5 1.17961C25.52 1.16961 25.5299 1.16031 25.5699 1.15031C25.3699 1.76031 25.08 2.30019 24.7 2.78019C24.31 3.27019 23.85 3.67945 23.33 4.01945C24.34 3.90945 25.31 3.64039 26.27 3.23039C26.25 3.27039 26.24 3.28949 26.23 3.30949C25.55 4.29949 24.73 5.15027 23.77 5.86027C23.7 5.91027 23.6701 5.96949 23.6801 6.05949C23.7301 6.89949 23.6801 7.74023 23.5601 8.57023C23.2401 10.8402 22.46 12.94 21.22 14.87C20.14 16.56 18.77 17.9795 17.11 19.0995C15.64 20.0895 14.0401 20.7798 12.3101 21.1698C11.4201 21.3698 10.52 21.49 9.59998 21.54C8.67998 21.58 7.75997 21.5604 6.83997 21.4403C4.65997 21.1603 2.65004 20.4297 0.790039 19.2597C0.780039 19.2497 0.77 19.2399 0.75 19.2099Z" fill="currentColor"/>
</svg>
